<?xml version="1.0" standalone="no"?>
<!DOCTYPE svg PUBLIC "-//W3C//DTD SVG 20010904//EN" "http://www.w3.org/TR/2001/REC-SVG-20010904/DTD/svg10.dtd">
<svg version="1.0" xmlns="http://www.w3.org/2000/svg" width="1600.000000pt" height="1600.000000pt"
   viewBox="0 0 1600.000000 1600.000000" preserveAspectRatio="xMidYMid meet">

   <g transform="translate(0.000000,1600.000000) scale(0.100000,-0.100000)" fill="#ffffff" stroke="none">
      <path d="M7160 14736 c-125 -27 -236 -79 -348 -163 -40 -29 -452 -426 -915
-881 -464 -455 -1373 -1347 -2021 -1982 l-1177 -1155 -1097 -5 -1097 -5 -80
-27 c-201 -69 -354 -232 -405 -434 -20 -76 -20 -118 -20 -1964 0 -1853 0
-1888 20 -1965 43 -169 166 -319 322 -393 45 -22 107 -45 136 -51 36 -8 392
-11 1131 -11 l1077 0 2025 -1986 c1264 -1241 2056 -2010 2109 -2050 156 -117
286 -172 435 -181 151 -9 271 33 377 135 109 104 176 233 222 427 l21 90 3
5960 c2 4445 0 5984 -8 6055 -35 287 -179 495 -395 570 -78 28 -226 35 -315
16z" />
      <path d="M11695 14140 c-216 -22 -405 -182 -481 -407 -21 -62 -27 -98 -28
-173 -1 -150 38 -268 127 -386 61 -81 122 -125 297 -216 352 -183 680 -401
995 -662 66 -55 222 -201 346 -325 228 -229 354 -372 510 -581 547 -730 897
-1576 1028 -2485 71 -490 71 -1074 0 -1570 -128 -897 -481 -1750 -1026 -2480
-152 -204 -308 -382 -517 -590 -451 -450 -917 -781 -1471 -1046 -140 -68 -270
-229 -311 -390 -21 -81 -21 -215 0 -298 53 -205 228 -383 432 -436 76 -20 229
-19 307 1 99 25 488 235 769 415 735 468 1396 1104 1897 1823 966 1386 1365
3091 1115 4771 -302 2033 -1551 3828 -3364 4837 -339 189 -431 218 -625 198z" />
      <path d="M10310 12465 c-109 -30 -200 -83 -280 -164 -87 -87 -131 -164 -160
-277 -38 -147 -17 -311 57 -443 48 -87 150 -188 238 -236 341 -186 590 -366
847 -614 605 -583 981 -1341 1084 -2184 22 -179 29 -505 15 -687 -58 -760
-323 -1437 -795 -2030 -128 -161 -386 -418 -548 -548 -191 -152 -382 -277
-570 -374 -179 -92 -293 -229 -338 -403 -85 -332 126 -671 460 -741 152 -32
307 -4 455 82 393 230 566 348 825 563 146 121 479 453 596 594 633 767 998
1624 1111 2609 27 238 25 821 -5 1058 -71 577 -217 1072 -463 1570 -149 302
-283 520 -478 780 -241 320 -554 640 -878 897 -269 214 -697 481 -853 533 -86
29 -243 36 -320 15z" />
      <path d="M8746 10475 c-191 -54 -346 -200 -414 -388 -23 -62 -26 -88 -27 -192
0 -101 4 -132 25 -195 45 -140 163 -280 292 -346 26 -13 96 -38 155 -55 241
-70 398 -161 564 -328 144 -145 222 -268 287 -453 58 -162 80 -343 63 -508
-30 -290 -146 -535 -351 -741 -154 -155 -306 -245 -540 -319 -145 -46 -221
-91 -303 -179 -65 -71 -100 -131 -134 -231 -54 -157 -27 -363 65 -506 45 -69
140 -160 206 -197 119 -66 258 -95 380 -78 179 25 536 170 751 306 506 318
885 822 1050 1394 343 1192 -286 2459 -1452 2922 -41 16 -127 46 -191 66 -105
32 -131 36 -247 39 -90 2 -145 -1 -179 -11z" />
   </g>
</svg>