<?xml version="1.0" standalone="no"?>
<!DOCTYPE svg PUBLIC "-//W3C//DTD SVG 20010904//EN" "http://www.w3.org/TR/2001/REC-SVG-20010904/DTD/svg10.dtd">
<svg version="1.0" xmlns="http://www.w3.org/2000/svg" width="1024.000000pt" height="1024.000000pt"
   viewBox="0 0 1024.000000 1024.000000" preserveAspectRatio="xMidYMid meet">

   <g transform="translate(0.000000,1024.000000) scale(0.100000,-0.100000)" fill="#ffffff" stroke="none">
      <path d="M4780 9524 c-36 -2 -95 -8 -132 -14 -38 -5 -101 -15 -140 -21 -225
-32 -366 -64 -654 -143 -92 -26 -260 -87 -454 -167 -203 -84 -509 -249 -681
-369 -177 -123 -241 -169 -284 -204 -78 -63 -304 -263 -367 -325 -76 -73 -273
-298 -370 -421 -80 -103 -252 -356 -305 -450 -89 -156 -108 -193 -152 -285
-65 -136 -91 -192 -91 -202 -1 -4 -9 -26 -20 -48 -11 -22 -19 -44 -20 -48 0
-5 -7 -23 -15 -40 -43 -94 -136 -403 -181 -602 -23 -107 -59 -323 -84 -510
-13 -105 -13 -795 1 -888 14 -93 40 -251 50 -302 4 -22 12 -67 18 -100 6 -33
18 -86 26 -118 21 -81 19 -127 -11 -215 -26 -79 -33 -107 -59 -247 -25 -134
-18 -271 23 -445 42 -177 166 -397 301 -537 48 -49 247 -183 317 -213 83 -36
246 -90 271 -90 37 0 63 -22 171 -148 153 -178 437 -450 593 -568 110 -83 285
-204 295 -204 2 0 26 -15 52 -34 27 -18 82 -53 123 -76 89 -52 478 -250 490
-250 5 0 34 -12 66 -26 81 -38 259 -100 383 -135 224 -63 256 -72 295 -79 22
-4 87 -18 145 -30 58 -12 128 -26 155 -31 166 -30 743 -48 910 -30 234 26 293
34 355 48 36 8 92 18 125 23 210 31 658 171 883 276 40 19 76 34 80 34 12 0
246 121 263 136 8 8 19 14 22 14 6 0 196 114 298 179 96 60 283 199 380 281
120 103 419 404 486 491 38 48 79 94 93 102 14 8 57 22 95 32 39 9 79 20 90
26 11 5 48 18 81 29 100 32 254 132 362 234 68 64 180 213 225 298 39 74 89
222 105 313 33 183 34 205 22 308 -15 136 -26 185 -62 289 -38 111 -36 166 12
378 6 25 15 74 21 110 5 36 14 92 19 125 28 174 35 301 35 620 0 219 -5 374
-13 435 -12 92 -19 142 -41 300 -10 68 -18 110 -41 210 -61 259 -103 394 -190
615 -83 211 -205 462 -285 585 -25 39 -45 73 -45 77 0 8 -162 245 -228 334
-224 299 -591 666 -877 875 -69 50 -374 254 -380 254 -2 0 -48 25 -102 57
-128 73 -330 170 -468 222 -60 23 -123 48 -140 56 -16 7 -68 24 -115 39 -47
14 -98 30 -115 35 -43 14 -224 62 -265 71 -195 41 -231 47 -550 90 -82 11
-666 21 -800 14z m810 -622 c101 -12 200 -28 255 -41 22 -5 56 -12 75 -15 170
-32 309 -70 527 -147 135 -47 352 -147 518 -238 74 -41 344 -221 446 -299 237
-178 506 -452 710 -722 88 -118 179 -246 179 -254 0 -2 19 -35 42 -72 248
-406 428 -941 477 -1414 6 -52 15 -138 20 -190 13 -118 13 -369 0 -515 -5 -60
-12 -148 -15 -195 -9 -143 -29 -165 -109 -120 -76 42 -339 99 -460 100 -131 0
-333 -51 -476 -121 -279 -137 -483 -370 -583 -671 -77 -228 -74 -491 6 -733
22 -64 88 -200 123 -250 80 -118 243 -274 349 -337 69 -41 65 -67 -22 -149
-139 -131 -315 -275 -438 -359 -28 -19 -78 -53 -110 -76 -33 -22 -84 -54 -114
-71 -30 -16 -77 -43 -105 -59 -114 -67 -316 -159 -520 -236 -124 -47 -411
-124 -550 -147 -38 -7 -90 -16 -115 -21 -25 -5 -90 -13 -145 -19 -55 -6 -141
-15 -191 -21 -115 -13 -361 -13 -473 0 -47 5 -133 14 -191 21 -58 6 -127 15
-155 20 -27 5 -75 14 -105 20 -276 54 -652 178 -908 301 -90 43 -281 150 -365
204 -37 24 -70 44 -73 44 -3 0 -30 19 -61 43 -31 23 -86 65 -123 92 -80 61
-163 129 -252 210 -37 33 -84 74 -105 92 -34 28 -37 34 -28 59 7 20 31 40 77
67 40 22 108 78 166 135 86 84 116 120 167 201 6 9 22 34 36 56 28 44 83 178
98 240 43 181 57 316 42 422 -31 216 -85 372 -175 508 -164 248 -397 418 -671
490 -192 51 -303 55 -466 21 -147 -32 -170 -39 -235 -76 -90 -51 -114 -38
-126 69 -42 391 -42 671 1 991 32 240 35 256 70 390 32 123 87 294 159 490 28
75 173 372 215 440 33 53 111 182 132 218 13 23 117 162 174 232 261 325 541
583 876 807 114 76 422 253 440 253 4 0 58 23 120 50 62 28 116 50 120 50 4 0
21 6 38 14 164 72 456 151 687 186 41 6 94 16 117 21 23 5 68 9 100 10 32 0
76 4 98 9 53 11 697 4 805 -8z m2780 -4698 c100 -10 195 -55 280 -132 164
-147 228 -370 169 -590 -31 -118 -55 -160 -144 -248 -130 -129 -264 -181 -442
-172 -196 11 -337 93 -451 263 -62 93 -82 166 -82 306 0 130 14 198 57 287 27
55 135 182 156 182 6 0 18 6 26 14 33 28 108 63 161 74 30 6 73 16 95 21 22 6
58 8 80 5 22 -2 65 -7 95 -10z m-6192 -19 c89 -32 146 -69 221 -143 78 -77 98
-110 142 -232 20 -54 23 -83 23 -175 -1 -176 -45 -287 -159 -401 -54 -55 -89
-80 -155 -112 -114 -54 -171 -66 -289 -60 -109 6 -228 41 -296 88 -63 43 -158
150 -187 211 -43 89 -58 159 -58 268 0 95 12 175 31 213 5 10 9 23 9 30 0 23
92 158 130 190 82 70 183 120 280 139 65 12 257 2 308 -16z" />
      <path d="M2690 7106 c-57 -19 -95 -43 -128 -81 -41 -46 -57 -78 -72 -146 -11
-48 -10 -64 5 -115 23 -83 53 -124 132 -182 103 -77 151 -114 198 -152 23 -19
64 -51 90 -70 124 -91 136 -118 85 -189 -105 -144 -179 -386 -180 -582 0 -77
31 -246 62 -334 132 -382 456 -649 843 -696 44 -5 86 -12 94 -14 17 -7 150 11
244 31 283 62 554 286 683 564 29 61 36 83 63 186 18 67 14 186 -8 236 -19 43
-70 97 -145 154 -21 16 -74 56 -117 89 -100 77 -344 264 -378 290 -14 10 -64
51 -111 90 -47 38 -148 117 -225 174 -77 58 -158 121 -180 141 -22 20 -50 43
-61 51 -27 18 -193 146 -259 199 -27 23 -108 86 -180 141 -71 54 -159 122
-194 149 -93 72 -178 94 -261 66z m843 -1238 c21 -11 84 -61 212 -169 33 -28
85 -67 115 -86 52 -34 84 -60 222 -181 34 -29 78 -62 99 -74 74 -41 65 -85
-30 -156 -96 -72 -181 -102 -286 -102 -145 0 -303 82 -382 198 -67 100 -83
154 -83 289 0 143 18 218 64 271 22 25 37 27 69 10z" />
      <path d="M7412 7106 c-45 -15 -129 -75 -288 -206 -50 -41 -135 -108 -190 -148
-54 -40 -124 -93 -154 -118 -30 -24 -107 -83 -170 -131 -63 -48 -153 -119
-199 -158 -47 -38 -97 -79 -112 -90 -46 -34 -210 -161 -304 -235 -49 -38 -124
-96 -165 -127 -41 -31 -91 -71 -111 -87 -20 -17 -62 -51 -94 -76 -106 -83
-136 -113 -162 -164 -70 -139 4 -418 166 -626 101 -130 184 -197 351 -284 157
-81 372 -127 503 -106 289 45 463 128 634 302 72 73 177 217 210 288 73 153
126 416 104 511 -6 24 -11 60 -11 80 0 101 -89 355 -145 418 -43 48 -56 90
-40 122 13 24 67 69 83 69 5 0 17 10 28 21 10 12 43 40 73 63 30 22 71 55 92
71 20 17 75 59 121 93 84 64 105 92 134 178 20 59 15 104 -21 181 -34 76 -64
105 -138 139 -73 33 -136 39 -195 20z m-615 -1248 c12 -13 26 -42 32 -65 6
-24 16 -60 21 -82 18 -68 12 -211 -11 -281 -11 -34 -28 -75 -36 -89 -19 -31
-144 -161 -155 -161 -4 0 -23 -11 -43 -24 -60 -41 -139 -59 -235 -53 -96 5
-165 26 -227 68 -23 16 -45 29 -49 29 -5 0 -23 14 -41 32 -44 43 -47 99 -5
125 32 20 193 141 260 196 26 20 58 45 72 54 14 9 44 33 66 53 23 19 61 49 84
65 24 17 62 46 86 65 120 98 145 107 181 68z" />
      <path d="M4940 4388 c-156 -22 -348 -81 -468 -146 -142 -75 -225 -136 -340
-247 -177 -170 -330 -415 -427 -682 -29 -80 -31 -112 -8 -179 25 -75 56 -118
113 -154 73 -47 151 -63 211 -46 119 36 159 79 243 265 36 79 72 151 81 161 8
9 15 19 15 23 0 18 73 108 153 190 118 118 222 180 362 215 22 6 59 15 81 21
53 14 287 14 356 0 173 -35 283 -94 416 -223 67 -64 152 -166 152 -181 0 -4
13 -25 28 -48 27 -41 92 -169 92 -182 0 -4 12 -30 26 -59 45 -91 118 -150 228
-186 56 -18 132 5 208 63 48 36 75 75 99 140 28 77 26 92 -41 262 -22 56 -143
290 -171 332 -16 23 -29 45 -29 48 0 12 -72 98 -144 173 -64 66 -183 170 -227
197 -9 6 -34 22 -55 36 -246 164 -645 250 -954 207z" />
   </g>
</svg>