<svg fill="#ffffff" height="200px" width="200px" version="1.1" id="Layer_1"
    xmlns="http://www.w3.org/2000/svg"
    xmlns:xlink="http://www.w3.org/1999/xlink" viewBox="0 0 470 470" xml:space="preserve">
    <g>
        <g>
            <g>
                <path d="M87.185,0c-24.813,0-45,20.187-45,45c0,16.62,9.063,31.153,22.5,38.946V447.5c0,12.406,10.093,22.5,22.5,22.5
                    s22.5-10.094,22.5-22.5V83.946c13.437-7.793,22.5-22.326,22.5-38.946C132.185,20.187,111.998,0,87.185,0z M94.685,447.5
                    c0,4.136-3.364,7.5-7.5,7.5s-7.5-3.364-7.5-7.5V89.363c2.441,0.411,4.944,0.637,7.5,0.637c2.556,0,5.059-0.226,7.5-0.637V447.5z
                    M87.185,75c-16.542,0-30-13.458-30-30s13.458-30,30-30s30,13.458,30,30S103.727,75,87.185,75z"></path>

                <path d="M427.706,432.018L402.249,96.847C400.707,76.529,382.875,60,362.499,60h-7.5V7.5c0-4.143-3.357-7.5-7.5-7.5h-120
                    c-4.142,0-7.5,3.357-7.5,7.5V60h-7.5c-20.375,0-38.208,16.529-39.75,36.846l-25.456,335.172
                    c-0.764,10.063,2.498,19.579,9.186,26.794c6.688,7.215,15.928,11.188,26.02,11.188h210c10.092,0,19.332-3.974,26.021-11.188
                    C425.207,451.597,428.47,442.081,427.706,432.018z M407.519,448.614c-3.817,4.118-9.151,6.386-15.02,6.386h-210
                    c-5.869,0-11.203-2.268-15.02-6.386c-3.817-4.118-5.674-9.608-5.23-15.46l25.456-335.172C188.651,85.524,200.006,75,212.499,75
                    h30c4.143,0,7.5-3.357,7.5-7.5s-3.357-7.5-7.5-7.5h-7.5V15h105v45h-67.5c-4.143,0-7.5,3.357-7.5,7.5s3.357,7.5,7.5,7.5h90
                    c12.493,0,23.848,10.524,24.793,22.982l25.457,335.171C413.193,439.006,411.336,444.496,407.519,448.614z"></path>

                <circle cx="233.364" cy="417" r="7.5"></circle>
                <circle cx="203.364" cy="387" r="7.5"></circle>
                <circle cx="352.634" cy="135" r="7.5"></circle>
            </g>
        </g>
    </g>
</svg>
