<svg xmlns="http://www.w3.org/2000/svg" viewBox="0 0 200 200" width="200" height="200">
    <title>Белый малый барабан (Контур)</title>

    <g stroke="#ffffffff" stroke-width="2" fill="none" stroke-linecap="round">
        <line x1="100" y1="150" x2="60" y2="190" stroke-width="3"/>
        <line x1="100" y1="150" x2="140" y2="190" stroke-width="3"/>
        <line x1="100" y1="150" x2="100" y2="180" stroke-width="3"/>
        <line x1="100" y1="120" x2="100" y2="150" stroke-width="4"/>
        <path d="M100 125 L80 110" stroke-width="3"/>
        <path d="M100 125 L120 110" stroke-width="3"/>
        <path d="M100 125 L100 115" stroke-width="3"/>
        <rect x="75" y="105" width="8" height="12" rx="2" fill="#FFFFFF" stroke="#000000" stroke-width="2"/>
        <rect x="117" y="105" width="8" height="12" rx="2" fill="#FFFFFF" stroke="#000000" stroke-width="2"/>
    </g>

    <g fill="#FFFFFF" stroke="#000000" stroke-width="2">
        <path d="M25 80 L25 110 Q100 135 175 110 L175 80 Z" />
        <path d="M27 110 Q100 133 173 110" fill="none" stroke-width="1.5"/>
    </g>

    <g>
        <ellipse cx="100" cy="80" rx="75" ry="22" fill="#FFFFFF" stroke="#000000" stroke-width="2.5"/>
        <ellipse cx="100" cy="80" rx="70" ry="20" fill="none" stroke="#000000" stroke-width="1" opacity="0.6"/>
    </g>

    <use href="#snareLug" x="35" y="85" />
    <use href="#snareLug" x="65" y="95" />
    <use href="#snareLug" x="100" y="100" />
    <use href="#snareLug" x="135" y="95" />
    <use href="#snareLug" x="165" y="85" />
 =</svg>